<?xml version="1.0" standalone="no"?>
<!DOCTYPE svg PUBLIC "-//W3C//DTD SVG 20010904//EN"
 "http://www.w3.org/TR/2001/REC-SVG-20010904/DTD/svg10.dtd">
<svg version="1.0" xmlns="http://www.w3.org/2000/svg"
 width="840.000000pt" height="290.000000pt" viewBox="0 0 840.000000 290.000000"
 preserveAspectRatio="xMidYMid meet">

<g transform="translate(0.000000,290.000000) scale(0.100000,-0.100000)"
fill="#000000" stroke="none">
<path d="M5188 2483 c7 -3 16 -2 19 1 4 3 -2 6 -13 5 -11 0 -14 -3 -6 -6z"/>
<path d="M5319 2454 c373 -94 580 -208 912 -500 319 -281 635 -466 1129 -659
142 -55 561 -195 582 -195 7 1 -66 27 -162 59 -609 202 -1126 473 -1440 755
-256 230 -363 306 -565 402 -134 63 -261 107 -403 140 -137 31 -176 30 -53 -2z"/>
<path d="M4025 2454 c-258 -13 -633 -53 -745 -81 -165 -40 -980 -353 -980
-376 0 -1 44 1 98 6 112 10 879 14 1317 7 l300 -5 55 26 c33 16 97 65 160 124
58 54 141 126 185 162 44 35 88 71 98 78 24 20 21 42 -5 49 -29 7 -388 15
-483 10z"/>
<path d="M4882 2379 c-165 -21 -340 -119 -458 -257 -44 -51 -134 -181 -134
-193 0 -11 79 -17 280 -24 96 -3 279 -10 405 -15 127 -5 266 -10 310 -11 l80
-2 47 83 c51 88 95 148 162 217 28 30 37 46 30 53 -38 38 -374 133 -529 150
-100 11 -103 11 -193 -1z"/>
<path d="M5619 2123 c-64 -67 -149 -200 -149 -231 0 -22 3 -22 139 -22 174 0
415 -17 501 -34 36 -8 67 -12 69 -10 5 5 -44 70 -88 117 -83 88 -327 237 -388
237 -24 0 -42 -12 -84 -57z"/>
<path d="M2125 1945 c-700 -66 -1148 -143 -1366 -236 -67 -29 -140 -70 -98
-56 229 76 380 91 702 66 148 -11 187 -20 187 -43 0 -9 -46 -104 -102 -213
-55 -109 -97 -193 -91 -188 5 6 35 43 67 83 118 146 283 282 431 353 83 40
159 56 586 124 299 48 752 92 984 97 180 3 -211 16 -685 22 -360 4 -499 2
-615 -9z"/>
<path d="M855 1675 c-253 -56 -273 -71 -329 -244 -44 -135 -49 -187 -21 -208
11 -8 31 -12 45 -9 14 2 165 10 335 16 378 15 362 9 461 160 90 137 130 225
116 254 -13 30 -36 33 -237 41 -88 3 -182 7 -210 10 -30 2 -93 -6 -160 -20z"/>
<path d="M1885 1661 c-161 -76 -255 -240 -179 -312 34 -32 118 -32 186 -2 99
45 198 170 198 251 0 24 -8 42 -29 63 -40 39 -94 39 -176 0z"/>
<path d="M2279 1666 c-99 -40 -144 -82 -168 -158 -16 -49 5 -100 51 -124 l33
-17 -33 37 c-52 60 -41 119 37 189 22 20 63 48 91 62 27 14 50 28 50 30 0 7 2
7 -61 -19z"/>
<path d="M2360 1667 c-122 -51 -189 -116 -198 -192 -4 -38 -1 -47 23 -69 74
-69 260 -27 338 76 40 51 58 103 48 130 -28 73 -115 96 -211 55z"/>
<path d="M1732 1596 c-104 -77 -138 -154 -91 -207 l20 -24 -6 28 c-11 51 16
107 83 179 36 37 62 68 59 68 -2 0 -32 -20 -65 -44z"/>
<path d="M478 1518 c-66 -70 -137 -268 -96 -268 9 0 27 17 41 38 35 50 106
201 109 231 4 37 -19 36 -54 -1z"/>
<path d="M3410 1436 c-197 -44 -325 -231 -361 -528 -18 -150 23 -380 89 -502
73 -133 193 -212 337 -221 l80 -5 -57 19 c-151 50 -239 160 -296 370 -23 86
-25 115 -26 286 -1 155 3 202 18 255 50 180 131 273 277 318 56 18 59 20 29
20 -19 0 -60 -5 -90 -12z"/>
<path d="M6106 1154 c-41 -64 -114 -136 -161 -158 -60 -29 -123 -34 -905 -81
-826 -49 -811 -51 230 -34 644 10 677 11 717 31 24 11 52 33 64 49 18 26 93
229 86 235 -1 2 -15 -17 -31 -42z"/>
<path d="M5550 793 c-76 -5 -950 -33 -1081 -34 l-124 -2 85 -8 c113 -12 1591
-12 1602 -1 5 5 -57 18 -149 31 -146 19 -213 22 -333 14z"/>
<path d="M2517 753 l-198 -3 -57 -58 c-36 -36 -72 -63 -97 -71 -53 -16 -435
-39 -810 -47 -503 -11 -943 30 -1073 102 l-43 23 -16 -37 c-27 -64 -22 -100
19 -138 89 -81 324 -112 1027 -135 273 -9 441 -9 689 0 435 15 885 49 902 68
4 5 10 74 13 156 l6 147 -82 -2 c-45 -2 -171 -4 -280 -5z"/>
<path d="M2997 611 c-4 -35 -7 -106 -7 -156 0 -106 1 -105 -88 -106 -101 -1
-102 -6 -18 -87 102 -99 115 -104 331 -109 l180 -5 -82 41 c-161 82 -260 223
-298 426 l-11 60 -7 -64z"/>
<path d="M6773 593 c9 -2 23 -2 30 0 6 3 -1 5 -18 5 -16 0 -22 -2 -12 -5z"/>
<path d="M6540 574 c-550 -58 -1462 -139 -1910 -169 -129 -9 -242 -17 -250
-18 -8 -1 242 -1 555 1 l570 3 610 95 c336 52 617 96 625 98 35 8 -85 3 -200
-10z"/>
<path d="M740 322 c0 -19 110 -100 185 -137 212 -106 427 -96 609 25 39 27 84
62 100 79 l30 31 -365 0 c-200 0 -408 3 -461 7 -70 4 -98 3 -98 -5z"/>
</g>
</svg>
